<?xml version="1.0" encoding="UTF-8"?>
<svg width="24px" height="24px" viewBox="0 0 24 24" version="1.1" xmlns="http://www.w3.org/2000/svg" xmlns:xlink="http://www.w3.org/1999/xlink">
    <title>Close Tooltip</title>
    <g id="PFD-pages-&amp;-components" stroke="none" stroke-width="1" fill="none" fill-rule="evenodd">
        <g id="PFD---Tooltip" transform="translate(-749.000000, -519.000000)">
            <g id="Close-Tooltip" transform="translate(749.000000, 519.000000)">
                <g id="Group">
                    <g id="Tooltip" fill="#034638" fill-rule="nonzero">
                        <path d="M12,0 C5.36,0 0,5.36 0,12 C0,18.64 5.36,24 12,24 C18.64,24 24,18.64 24,12 C24,5.36 18.64,0 12,0 Z" id="Shape-Copy-48"></path>
                    </g>
                    <g id="x" transform="translate(12.000000, 12.000000) rotate(45.000000) translate(-12.000000, -12.000000) translate(5.000000, 5.000000)" fill="#FFFFFF">
                        <path d="M7.875,6.125 L14,6.125 L14,7.875 L7.875,7.875 L7.875,14 L6.125,14 L6.125,7.875 L0,7.875 L0,6.125 L6.125,6.125 L6.125,0 L7.875,0 L7.875,6.125 Z" id="Combined-Shape"></path>
                    </g>
                </g>
            </g>
        </g>
    </g>
</svg>