<?xml version="1.0" encoding="UTF-8"?>
<svg width="24px" height="24px" viewBox="0 0 24 24" version="1.1" xmlns="http://www.w3.org/2000/svg" xmlns:xlink="http://www.w3.org/1999/xlink">
    <title>Tooltip</title>
    <g id="PFD-pages-&amp;-components" stroke="none" stroke-width="1" fill="none" fill-rule="evenodd">
        <g id="PFD---Tooltip" transform="translate(-706.000000, -361.000000)" fill-rule="nonzero">
            <g id="Tooltip" transform="translate(706.000000, 361.000000)">
                <path d="M12,0 C5.36,0 0,5.36 0,12 C0,18.64 5.36,24 12,24 C18.64,24 24,18.64 24,12 C24,5.36 18.64,0 12,0 Z" id="Shape-Copy-48" fill="#034638"></path>
                <path d="M12,5 C12.5833362,5 13.0624981,5.15312347 13.4375,5.45937499 C13.8125019,5.76562652 14,6.20312214 14,6.77187497 C14,7.34062781 13.8083352,7.77083184 13.425,8.06249996 C13.0416647,8.35416808 12.5583362,8.5 11.975,8.5 C11.3916637,8.5 10.9166685,8.35052228 10.55,8.05156246 C10.1833315,7.75260263 10,7.31875281 10,6.74999998 C10,6.18124714 10.1874981,5.74739732 10.5625,5.44843749 C10.9375019,5.14947767 11.4166637,5 12,5 Z M10.2285714,9.85101593 L13.7714286,9.85101593 L13.7714286,17.8510159 L10.2285714,17.8510159 L10.2285714,9.85101593 Z" id="i" fill="#FFFFFF"></path>
            </g>
        </g>
    </g>
</svg>